<svg id="esAZg3OneWU1" xmlns="http://www.w3.org/2000/svg" xmlns:xlink="http://www.w3.org/1999/xlink" viewBox="0 0 860.282220 771.924280" shape-rendering="geometricPrecision" text-rendering="geometricPrecision"><ellipse id="esAZg3OneWU2" rx="283" ry="43" transform="matrix(1 0 0 1 449.78300000000002 728.92399999999998)" fill="rgb(242,242,242)" stroke="none" stroke-width="1"/><path id="esAZg3OneWU3" d="M797.697810,640.497000C806.004828,643.516921,815.313217,640.960442,820.912507,634.121258C826.511796,627.282075,827.180467,617.652196,822.580143,610.104780C817.979818,602.557365,809.114084,598.738927,800.469410,600.581770L800.990340,611.293970L795.922200,602.113510C790.948100,604.450694,787.105394,608.667086,785.238530,613.836120C784.575533,615.646768,784.172483,617.542237,784.041400,619.465990C783.384047,628.739962,788.958519,637.324705,797.697810,640.497000Z" transform="matrix(1 0 0 1 -170.10900000000001 -63.78790000000000)" fill="rgb(87,184,148)" stroke="none" stroke-width="1"/><path id="esAZg3OneWU4" d="M822.775150,764.740430C820.986100,755.630160,828.738460,747.553630,836.396020,742.303910C844.053580,737.054190,853.001020,731.896120,855.613770,722.987070C859.368770,710.183200,848.183770,698.457270,839.478130,688.345320C833.019375,680.841102,827.472823,672.597806,822.954540,663.787930C821.143460,660.255430,819.478960,656.562660,819.002320,652.621670C818.315920,646.946210,820.139260,641.298590,821.976230,635.884940Q831.155470,608.833260,841.604660,582.234890" transform="matrix(1 0 0 1 -170.10900000000001 -63.78790000000000)" fill="none" stroke="rgb(63,61,86)" stroke-width="1" stroke-miterlimit="10"/><path id="esAZg3OneWU5" d="M798.554930,637.739060C806.861948,640.758981,816.170337,638.202502,821.769627,631.363318C827.368916,624.524135,828.037587,614.894256,823.437263,607.346840C818.836938,599.799425,809.971204,595.980987,801.326530,597.823830L801.847460,608.536030L796.779310,599.355580C791.805212,601.692761,787.962507,605.909150,786.095640,611.078180C785.432651,612.888829,785.029604,614.784298,784.898520,616.708050C784.241167,625.982022,789.815639,634.566765,798.554930,637.739060Z" transform="matrix(1 0 0 1 -170.10900000000001 -63.78790000000000)" fill="none" stroke="rgb(63,61,86)" stroke-width="1" stroke-miterlimit="10"/><path id="esAZg3OneWU6" d="M820.231350,578.535520C822.647266,571.869570,828.294050,566.894637,835.211280,565.337890L836.924900,575.521670L840.101900,564.826000C849.152964,564.960229,857.079094,570.930045,859.707050,579.592240C862.335006,588.254436,859.061931,597.621891,851.611154,602.762485C844.160377,607.903078,834.241116,607.637551,827.076028,602.105707C819.910940,596.573864,817.143706,587.044716,820.231320,578.535520Z" transform="matrix(1 0 0 1 -170.10900000000001 -63.78790000000000)" fill="rgb(87,184,148)" stroke="none" stroke-width="1"/><path id="esAZg3OneWU7" d="M821.374180,574.858270C823.790087,568.192314,829.436874,563.217377,836.354110,561.660640L838.067720,571.844420L841.244720,561.148750C850.295785,561.282974,858.221919,567.252788,860.849878,575.914983C863.477837,584.577179,860.204765,593.944636,852.753988,599.085232C845.303211,604.225828,835.383949,603.960302,828.218860,598.428459C821.053770,592.896616,818.286535,583.367467,821.374150,574.858270Z" transform="matrix(1 0 0 1 -170.10900000000001 -63.78790000000000)" fill="none" stroke="rgb(63,61,86)" stroke-width="1" stroke-miterlimit="10"/><path id="esAZg3OneWU8" d="M835.824740,688.551720C845.770395,692.159409,856.840002,687.730578,861.552508,678.258315C866.265014,668.786052,863.120350,657.285538,854.243740,651.529040L851.802530,659.748300L850.071470,649.444480C850.054353,649.436414,850.036633,649.429696,850.018470,649.424390C843.027779,646.883734,835.212602,648.267178,829.518886,653.053229C823.825170,657.839281,821.118645,665.300222,822.419541,672.623633C823.720438,679.947045,828.830954,686.019404,835.824670,688.551720Z" transform="matrix(1 0 0 1 -170.10900000000001 -63.78790000000000)" fill="rgb(87,184,148)" stroke="none" stroke-width="1"/><path id="esAZg3OneWU9" d="M836.815000,684.827000C846.760655,688.434689,857.830262,684.005858,862.542768,674.533595C867.255274,665.061332,864.110610,653.560818,855.234000,647.804320L852.792790,656.023580L851.061790,645.719760C851.044674,645.711692,851.026953,645.704975,851.008790,645.699670C844.017835,643.157935,836.201820,644.540861,830.507434,649.327074C824.813049,654.113288,822.106275,661.574920,823.407584,668.898885C824.708894,676.222849,829.820389,682.295345,836.815000,684.827000Z" transform="matrix(1 0 0 1 -170.10900000000001 -63.78790000000000)" fill="none" stroke="rgb(63,61,86)" stroke-width="1" stroke-miterlimit="10"/><path id="esAZg3OneWU10" d="M814.157820,723.114340C815.860252,732.801523,824.114961,739.972355,833.945027,740.303406C843.775092,740.634456,852.493540,734.035234,854.843852,724.484537C857.194165,714.933840,852.533901,705.042278,843.672823,700.773662C834.811745,696.505046,824.171961,699.026170,818.168400,706.817000L827.441070,720.773540L814.771130,713.365850C813.788743,716.519302,813.578403,719.862630,814.157820,723.114340Z" transform="matrix(1 0 0 1 -170.10900000000001 -63.78790000000000)" fill="rgb(87,184,148)" stroke="none" stroke-width="1"/><path id="esAZg3OneWU11" d="M815.014940,720.356410C816.717383,730.043588,824.972096,737.214409,834.802159,737.545452C844.632222,737.876494,853.350663,731.277269,855.700970,721.726574C858.051278,712.175879,853.391013,702.284321,844.529938,698.015707C835.668862,693.747092,825.029082,696.268214,819.025520,704.059040L828.298180,718.015580L815.628240,710.607890C814.645857,713.761353,814.435521,717.104691,815.014940,720.356410Z" transform="matrix(1 0 0 1 -170.10900000000001 -63.78790000000000)" fill="none" stroke="rgb(63,61,86)" stroke-width="1" stroke-miterlimit="10"/><path id="esAZg3OneWU12" d="M756.866640,177.625560C758.492718,146.554950,784.159439,122.195895,815.272570,122.195290C817.050110,122.195290,818.805370,122.288000,820.542520,122.443290C834.446437,98.523187,860.020192,83.800053,887.687683,83.786972C915.355175,83.773890,940.942841,98.472835,954.869370,122.379780C956.334900,122.269710,957.810300,122.195330,959.303960,122.195330C990.417091,122.195935,1016.083812,146.554990,1017.709890,177.625600" transform="matrix(1 0 0 1 -170.10900000000001 -63.78790000000000)" fill="rgb(242,242,242)" stroke="none" stroke-width="1"/><path id="esAZg3OneWU13" d="M769.048190,173.126490C770.674273,142.055884,796.340992,117.696835,827.454120,117.696230C829.231660,117.696230,830.986920,117.788930,832.724070,117.944230C846.627987,94.024127,872.201742,79.300993,899.869233,79.287912C927.536725,79.274830,953.124391,93.973775,967.050920,117.880720C968.516450,117.770650,969.991840,117.696270,971.485510,117.696270C1002.598638,117.696875,1028.265357,142.055924,1029.891440,173.126530" transform="matrix(1 0 0 1 -170.10900000000001 -63.78790000000000)" fill="none" stroke="rgb(63,61,86)" stroke-width="1" stroke-miterlimit="10"/><path id="esAZg3OneWU14" d="M331.866640,455.625560C333.492718,424.554950,359.159439,400.195895,390.272570,400.195290C392.050110,400.195290,393.805370,400.288000,395.542570,400.443290C409.446487,376.523187,435.020242,361.800053,462.687733,361.786972C490.355225,361.773890,515.942891,376.472835,529.869420,400.379780C531.334950,400.269710,532.810350,400.195330,534.304010,400.195330C565.417141,400.195935,591.083862,424.554990,592.709940,455.625600" transform="matrix(1 0 0 1 -170.10900000000001 -63.78790000000000)" fill="rgb(242,242,242)" stroke="none" stroke-width="1"/><path id="esAZg3OneWU15" d="M344.048190,451.126490C345.674273,420.055884,371.340992,395.696835,402.454120,395.696230C404.231660,395.696230,405.986920,395.788930,407.724070,395.944230C421.627987,372.024127,447.201742,357.300993,474.869233,357.287912C502.536725,357.274830,528.124391,371.973775,542.050920,395.880720C543.516450,395.770650,544.991840,395.696270,546.485510,395.696270C577.598638,395.696875,603.265357,420.055924,604.891440,451.126530" transform="matrix(1 0 0 1 -170.10900000000001 -63.78790000000000)" fill="none" stroke="rgb(63,61,86)" stroke-width="1" stroke-miterlimit="10"/><path id="esAZg3OneWU16" d="M207.866640,162.625560C209.492718,131.554950,235.159439,107.195895,266.272570,107.195290C268.050110,107.195290,269.805370,107.288000,271.542570,107.443290C285.446487,83.523187,311.020242,68.800053,338.687733,68.786972C366.355225,68.773890,391.942891,83.472835,405.869420,107.379780C407.334950,107.269710,408.810350,107.195330,410.304010,107.195330C441.417141,107.195935,467.083862,131.554990,468.709940,162.625600" transform="matrix(1 0 0 1 -170.10900000000001 -63.78790000000000)" fill="rgb(242,242,242)" stroke="none" stroke-width="1"/><path id="esAZg3OneWU17" d="M220.048190,158.126490C221.674273,127.055884,247.340992,102.696835,278.454120,102.696230C280.231660,102.696230,281.986920,102.788930,283.724070,102.944230C297.627987,79.024127,323.201742,64.300993,350.869233,64.287912C378.536725,64.274830,404.124391,78.973775,418.050920,102.880720C419.516450,102.770650,420.991840,102.696270,422.485510,102.696270C453.598638,102.696875,479.265357,127.055924,480.891440,158.126530" transform="matrix(1 0 0 1 -170.10900000000001 -63.78790000000000)" fill="none" stroke="rgb(63,61,86)" stroke-width="1" stroke-miterlimit="10"/><path id="esAZg3OneWU18" d="M465.161000,281.260910C465.161000,281.260910,570.281000,333.458440,589.130130,326.208780C607.979260,318.959120,614.503930,254.437180,614.503930,254.437180L536.932600,239.937870Z" transform="matrix(1 0 0 1 -170.10900000000001 -63.78790000000000)" fill="rgb(108,99,255)" stroke="none" stroke-width="1"/><path id="esAZg3OneWU19" d="M465.161000,281.260910C465.161000,281.260910,570.281000,333.458440,589.130130,326.208780C607.979260,318.959120,614.503930,254.437180,614.503930,254.437180L536.932600,239.937870Z" transform="matrix(1 0 0 1 -170.10900000000001 -63.78790000000000)" opacity="0.1" fill="rgb(0,0,0)" stroke="none" stroke-width="1"/><rect id="esAZg3OneWU20" width="68.871700" height="60.172100" rx="0" ry="0" transform="matrix(1 0 0 1 444.03300000000002 139.53899999999999)" fill="rgb(255,101,132)" stroke="none" stroke-width="1"/><rect id="esAZg3OneWU21" width="68.871700" height="60.172100" rx="0" ry="0" transform="matrix(1 0 0 1 444.03300000000002 139.53899999999999)" opacity="0.1" fill="rgb(0,0,0)" stroke="none" stroke-width="1"/><path id="esAZg3OneWU22" d="M551.431930,459.602460C551.431930,459.602460,548.532060,522.674460,568.106140,521.224540C587.680220,519.774620,568.106140,461.777360,568.106140,461.777360Z" transform="matrix(1 0 0 1 -170.10900000000001 -63.78790000000000)" fill="rgb(251,190,190)" stroke="none" stroke-width="1"/><path id="esAZg3OneWU23" d="M631.903110,212.389170C631.903110,212.389170,636.252910,239.937870,628.278280,243.562700C620.303650,247.187530,615.228900,250.087390,615.228900,250.087390L633.353000,262.411800L666.701420,264.586700L675.401010,258.062010L683.375630,250.812350C683.375630,250.812350,670.326250,247.912490,670.326250,241.387800C670.326250,234.863110,669.601250,215.289040,669.601250,215.289040Z" transform="matrix(1 0 0 1 -170.10900000000001 -63.78790000000000)" fill="rgb(251,190,190)" stroke="none" stroke-width="1"/><path id="esAZg3OneWU24" d="M631.903110,212.389170C631.903110,212.389170,636.252910,239.937870,628.278280,243.562700C620.303650,247.187530,615.228900,250.087390,615.228900,250.087390L633.353000,262.411800L666.701420,264.586700L675.401010,258.062010L683.375630,250.812350C683.375630,250.812350,670.326250,247.912490,670.326250,241.387800C670.326250,234.863110,669.601250,215.289040,669.601250,215.289040Z" transform="matrix(1 0 0 1 -170.10900000000001 -63.78790000000000)" opacity="0.1" fill="rgb(0,0,0)" stroke="none" stroke-width="1"/><path id="esAZg3OneWU25" d="M586.230280,470.477000C586.230280,470.477000,565.206280,537.898800,565.206280,587.196470C565.206280,587.196470,530.407930,665.492760,531.857860,703.915940L523.158280,756.838430L535.482690,761.188220L544.907240,753.213600C544.907240,753.213600,547.807110,724.939940,557.231660,711.165600C566.656210,697.391260,588.405180,632.144350,588.405180,632.144350C588.405180,632.144350,646.402440,510.350120,644.227540,492.950940C642.052640,475.551760,586.230280,470.477000,586.230280,470.477000Z" transform="matrix(1 0 0 1 -170.10900000000001 -63.78790000000000)" fill="rgb(251,190,190)" stroke="none" stroke-width="1"/><path id="esAZg3OneWU26" d="M714.549200,455.252670C714.549200,455.252670,728.323540,461.777360,708.749470,577.771860C708.749470,577.771860,719.623960,654.618220,710.199400,696.666230L708.749470,738.714230L693.525190,738.714230L690.625330,734.364430C690.625330,734.364430,689.900330,696.666220,684.825610,686.516700C679.750890,676.367180,675.401050,617.644960,675.401050,617.644960C675.401050,617.644960,652.202150,498.025630,657.276910,487.876110C662.351670,477.726590,714.549200,455.252670,714.549200,455.252670Z" transform="matrix(1 0 0 1 -170.10900000000001 -63.78790000000000)" fill="rgb(251,190,190)" stroke="none" stroke-width="1"/><path id="esAZg3OneWU27" d="M520.983370,744.514000C520.983370,744.514000,526.058130,756.113450,535.482680,753.213590C544.907230,750.313730,547.082130,750.313730,547.082130,750.313730C547.082130,750.313730,540.557440,783.662150,542.732340,799.611390C544.907240,815.560630,541.282410,825.710160,526.783090,825.710160C512.283770,825.710160,510.108880,808.310980,510.108880,808.310980L516.633570,766.987980Z" transform="matrix(1 0 0 1 -170.10900000000001 -63.78790000000000)" fill="rgb(47,46,65)" stroke="none" stroke-width="1"/><path id="esAZg3OneWU28" d="M687.725470,726.389820C687.725470,726.389820,692.800230,736.539340,700.774850,734.364440C708.749470,732.189540,711.649330,728.564720,711.649330,728.564720C711.649330,728.564720,710.924330,751.038650,713.824230,761.188170C716.724130,771.337690,723.248790,800.336320,708.024510,801.786250C699.438564,802.829266,691.185918,798.113460,687.725510,790.186800L687.725510,726.389800Z" transform="matrix(1 0 0 1 -170.10900000000001 -63.78790000000000)" fill="rgb(47,46,65)" stroke="none" stroke-width="1"/><circle id="esAZg3OneWU29" r="31.898500" transform="matrix(1 0 0 1 481.36900000000003 135.55199999999999)" fill="rgb(251,190,190)" stroke="none" stroke-width="1"/><path id="esAZg3OneWU30" d="M710.199400,256.612080C710.199400,256.612080,684.932060,246.690630,675.816760,248.026530C667.875150,254.774639,657.470371,257.888362,647.127390,256.612080C629.728220,254.437180,622.924490,246.087300,622.924490,246.087300C622.924490,246.087300,576.080760,256.612080,578.980620,260.961870C581.880480,265.311660,594.929860,336.358300,594.929860,336.358300C594.929860,336.358300,603.629450,397.980380,593.479930,419.004390C583.330410,440.028400,578.255650,474.826740,582.605450,477.726600C586.955250,480.626460,635.527940,493.675850,641.327670,497.300680C647.127400,500.925510,649.302290,488.601090,652.927120,490.775990C656.551950,492.950890,664.526570,496.575710,669.601330,493.675850C674.676090,490.775990,723.973750,464.677220,722.523820,459.602460C721.073890,454.527700,702.224820,392.905620,695.700090,380.581210C689.175360,368.256800,694.250160,342.158030,697.874990,337.083270C701.499820,332.008510,708.749470,326.208780,710.199400,311.709470C711.649330,297.210160,710.199400,256.612080,710.199400,256.612080Z" transform="matrix(1 0 0 1 -170.10900000000001 -63.78790000000000)" fill="rgb(47,46,65)" stroke="none" stroke-width="1"/><path id="esAZg3OneWU31" d="M580.578410,258.721330C580.578410,258.721330,574.630830,263.136770,572.455930,272.561330C570.281030,281.985890,567.381170,357.382330,567.381170,357.382330C567.381170,357.382330,540.557440,461.052410,546.357170,463.227330C552.156900,465.402250,568.831100,469.752020,571.006000,467.577120C573.180900,465.402220,597.829730,377.681380,595.654830,368.256830C593.479930,358.832280,598.554690,331.283580,598.554690,331.283580Z" transform="matrix(1 0 0 1 -170.10900000000001 -63.78790000000000)" fill="rgb(47,46,65)" stroke="none" stroke-width="1"/><path id="esAZg3OneWU32" d="M714.549200,393.630590C714.549200,393.630590,675.401050,374.056520,671.051260,387.105900C666.701470,400.155280,712.374260,413.929630,712.374260,413.929630C712.374260,413.929630,728.323500,408.129900,728.323500,404.505070C728.323500,400.880240,714.549200,393.630590,714.549200,393.630590Z" transform="matrix(1 0 0 1 -170.10900000000001 -63.78790000000000)" fill="rgb(251,190,190)" stroke="none" stroke-width="1"/><path id="esAZg3OneWU33" d="M702.224780,259.511940L710.199400,256.612080C710.199400,256.612080,714.549200,253.712220,719.623960,264.586700C724.698720,275.461180,779.796110,339.258160,769.646590,359.557200C759.497070,379.856240,726.148650,421.179280,724.698720,418.279420C723.248790,415.379560,706.574580,393.630590,709.474440,391.455690C712.374300,389.280790,745.722720,359.557200,741.372930,355.207410C737.023140,350.857620,718.898990,313.884410,708.749470,312.434410C698.599950,310.984410,702.224780,259.511940,702.224780,259.511940Z" transform="matrix(1 0 0 1 -170.10900000000001 -63.78790000000000)" fill="rgb(47,46,65)" stroke="none" stroke-width="1"/><path id="esAZg3OneWU34" d="M616.316350,198.252340C616.316350,198.252340,505.767660,153.802410,410.072190,111.029440C410.072190,111.029440,360.049560,98.705020,333.950800,121.903920C333.950800,121.903920,355.699800,119.004060,355.699800,131.328480C355.699800,131.328480,374.548900,155.977310,315.826690,160.327100C274.930860,163.356430,258.648260,187.834420,252.531170,202.416890C247.755471,214.122610,239.360461,223.993685,228.573460,230.587000C214.438820,239.034680,193.953290,245.249710,170.108560,234.273560C170.108560,234.273560,171.464150,236.357560,174.035510,239.830010C220.073810,302.002170,391.516510,356.110770,452.057860,307.948090C489.472620,278.183390,548.785800,240.563090,591.305040,259.511900C658.001880,289.235490,670.326290,276.186110,670.326290,276.186110L673.226160,268.211490C673.226160,268.211490,608.704160,250.812310,607.254280,228.338380C605.804400,205.864450,616.316350,198.252340,616.316350,198.252340Z" transform="matrix(1 0 0 1 -155.60968999999983 -26.61720692499886)" fill="rgb(108,99,255)" stroke="none" stroke-width="1"/><path id="esAZg3OneWU35" d="M680.838290,204.052070C680.838290,204.052070,696.425060,210.214280,699.324920,230.513320C699.324920,230.513320,715.999130,263.136770,697.150020,271.111390C678.300910,279.086010,674.676090,276.911120,674.676090,276.911120L674.676090,273.286290C674.676090,273.286290,694.975090,260.961870,690.625330,251.537290C686.275570,242.112710,680.838290,204.052070,680.838290,204.052070Z" transform="matrix(1 0 0 1 -170.10900000000001 -63.78790000000000)" fill="rgb(108,99,255)" stroke="none" stroke-width="1"/><path id="esAZg3OneWU36" d="M652.927120,296.485190C652.927120,296.485190,658.001880,283.435810,656.551950,283.435810C655.102020,283.435810,662.450310,275.409810,665.300850,278.335360C668.151390,281.260910,673.226160,289.960500,667.426430,292.135360C661.626700,294.310220,652.927120,296.485190,652.927120,296.485190Z" transform="matrix(1 0 0 1 -170.10900000000001 -63.78790000000000)" fill="rgb(108,99,255)" stroke="none" stroke-width="1"/><path id="esAZg3OneWU37" d="M688.656000,288.739560C688.656000,288.739560,675.403770,284.220940,675.465060,285.669560C675.526350,287.118180,667.196910,280.115720,669.999350,277.144060C672.801790,274.172400,681.279090,268.734450,683.697200,274.437060C686.115310,280.139670,688.656000,288.739560,688.656000,288.739560Z" transform="matrix(1 0 0 1 -170.10900000000001 -63.78790000000000)" fill="rgb(108,99,255)" stroke="none" stroke-width="1"/><path id="esAZg3OneWU38" d="M623.821070,147.285770C619.998690,150.436680,616.373840,153.967770,613.996930,158.313870C612.750450,160.751411,611.708430,163.288202,610.881600,165.898120C607.949970,174.335290,600.662450,182.880460,603.746790,191.263010C604.626900,193.654940,605.999170,196.176920,605.210200,198.600440C604.509510,200.752750,602.346820,202.008750,600.782580,203.644760C597.425200,207.156180,596.860810,212.424840,596.655720,217.278760C596.280120,226.167860,601.167850,236.643150,607.073720,243.297300C608.355988,244.549075,609.543953,245.893941,610.627900,247.320900C612.106978,249.623214,612.513222,252.454410,611.741200,255.079730L620.344610,253.284120C620.655019,256.460397,620.752010,259.653920,620.634930,262.843180C624.840012,263.305300,628.791730,260.751402,630.097690,256.727630C630.584631,259.001934,631.379821,261.199103,632.461230,263.258260C634.984911,260.101804,636.920436,256.517263,638.175410,252.675750C639.821816,247.755282,640.175189,242.494094,639.201580,237.397650C638.290435,233.675414,637.050822,230.041362,635.497320,226.538240C632.457320,218.855490,629.974830,210.965980,627.495140,203.084540C626.207260,198.991130,624.903830,194.764630,625.294140,190.491190L628.351140,190.158690C628.385020,188.470710,628.711491,186.801404,629.316030,185.225030C631.107734,185.604099,632.831538,186.252872,634.428570,187.149190L637.952690,178.206940C640.278590,180.619110,643.616540,181.710940,646.812690,182.717310L658.961160,186.542470L659.035110,184.138220C664.162915,188.677571,670.003505,192.341163,676.322280,194.981840C675.600744,194.110137,675.289654,192.969876,675.468530,191.852520C678.462280,197.215650,677.265070,203.896970,675.417470,209.754620C673.569870,215.612270,671.118640,221.575740,671.862690,227.672620C672.419170,232.232550,674.755060,236.593490,674.322010,241.166790C674.108750,243.418880,673.227930,245.561960,672.954010,247.807480C672.300740,253.163000,675.116560,258.262900,677.834670,262.923400L683.120040,255.664860C685.054410,253.008350,687.048260,250.293930,689.787180,248.478140C692.598740,246.614140,696.083680,245.777410,698.533810,243.458780C702.907650,239.319680,702.352330,232.268120,700.929960,226.416660C700.173840,223.306100,699.258890,220.151410,699.536870,216.962360C700.008110,211.556190,703.764740,207.083150,705.880510,202.085920C708.936779,194.701823,708.402391,186.318792,704.433250,179.382540C701.807930,174.879420,697.840980,171.252750,695.366960,166.664770C692.904170,162.097620,691.964720,156.663370,688.590200,152.721690C686.942389,150.928003,685.025981,149.401137,682.909500,148.195690C673.318693,142.433357,662.546869,138.919099,651.403100,137.916870C640.835000,136.812000,631.919460,140.610000,623.821070,147.285770Z" transform="matrix(1 0 0 1 -170.10900000000001 -63.78790000000000)" fill="rgb(255,101,132)" stroke="none" stroke-width="1"/><path id="esAZg3OneWU39" d="M667.426430,268.936500C667.426430,268.936500,674.045480,265.221370,677.985610,271.066240C681.925740,276.911110,673.226160,287.060640,667.426430,287.060640C661.626700,287.060640,661.626700,274.736220,661.626700,274.736220Z" transform="matrix(1 0 0 1 -170.10900000000001 -63.78790000000000)" fill="rgb(108,99,255)" stroke="none" stroke-width="1"/><path id="esAZg3OneWU40" d="M667.426430,268.936500C667.426430,268.936500,674.045480,265.221370,677.985610,271.066240C681.925740,276.911110,673.226160,287.060640,667.426430,287.060640C661.626700,287.060640,661.626700,274.736220,661.626700,274.736220Z" transform="matrix(1 0 0 1 -170.10900000000001 -63.78790000000000)" opacity="0.1" fill="rgb(0,0,0)" stroke="none" stroke-width="1"/><script><![CDATA[!function(t,n){"object"==typeof exports&&"undefined"!=typeof module?module.exports=n():"function"==typeof define&&define.amd?define(n):(t="undefined"!=typeof globalThis?globalThis:t||self).__SVGATOR_PLAYER__=n()}(this,(function(){"use strict";function t(n){return(t="function"==typeof Symbol&&"symbol"==typeof Symbol.iterator?function(t){return typeof t}:function(t){return t&&"function"==typeof Symbol&&t.constructor===Symbol&&t!==Symbol.prototype?"symbol":typeof t})(n)}function n(t,n){if(!(t instanceof n))throw new TypeError("Cannot call a class as a function")}function e(t,n){for(var e=0;e<n.length;e++){var r=n[e];r.enumerable=r.enumerable||!1,r.configurable=!0,"value"in r&&(r.writable=!0),Object.defineProperty(t,r.key,r)}}function r(t,n,r){return n&&e(t.prototype,n),r&&e(t,r),t}function i(t){return(i=Object.setPrototypeOf?Object.getPrototypeOf:function(t){return t.__proto__||Object.getPrototypeOf(t)})(t)}function o(t,n){return(o=Object.setPrototypeOf||function(t,n){return t.__proto__=n,t})(t,n)}function u(t,n){return!n||"object"!=typeof n&&"function"!=typeof n?function(t){if(void 0===t)throw new ReferenceError("this hasn't been initialised - super() hasn't been called");return t}(t):n}function a(t){var n=function(){if("undefined"==typeof Reflect||!Reflect.construct)return!1;if(Reflect.construct.sham)return!1;if("function"==typeof Proxy)return!0;try{return Boolean.prototype.valueOf.call(Reflect.construct(Boolean,[],(function(){}))),!0}catch(t){return!1}}();return function(){var e,r=i(t);if(n){var o=i(this).constructor;e=Reflect.construct(r,arguments,o)}else e=r.apply(this,arguments);return u(this,e)}}function l(t,n,e){return(l="undefined"!=typeof Reflect&&Reflect.get?Reflect.get:function(t,n,e){var r=function(t,n){for(;!Object.prototype.hasOwnProperty.call(t,n)&&null!==(t=i(t)););return t}(t,n);if(r){var o=Object.getOwnPropertyDescriptor(r,n);return o.get?o.get.call(e):o.value}})(t,n,e||t)}var f=Math.abs;function s(t){return t}function c(t,n,e){var r=1-e;return 3*e*r*(t*r+n*e)+e*e*e}function h(){var t=arguments.length>0&&void 0!==arguments[0]?arguments[0]:0,n=arguments.length>1&&void 0!==arguments[1]?arguments[1]:0,e=arguments.length>2&&void 0!==arguments[2]?arguments[2]:1,r=arguments.length>3&&void 0!==arguments[3]?arguments[3]:1;return t<0||t>1||e<0||e>1?null:f(t-n)<=1e-5&&f(e-r)<=1e-5?s:function(i){if(i<=0)return t>0?i*n/t:0===n&&e>0?i*r/e:0;if(i>=1)return e<1?1+(i-1)*(r-1)/(e-1):1===e&&t<1?1+(i-1)*(n-1)/(t-1):1;for(var o,u=0,a=1;u<a;){var l=c(t,e,o=(u+a)/2);if(f(i-l)<1e-5)break;l<i?u=o:a=o}return c(n,r,o)}}function v(){return 1}function y(t){return 1===t?1:0}function d(){var t=arguments.length>0&&void 0!==arguments[0]?arguments[0]:1,n=arguments.length>1&&void 0!==arguments[1]?arguments[1]:0;if(1===t){if(0===n)return y;if(1===n)return v}var e=1/t;return function(t){return t>=1?1:(t+=n*e)-t%e}}function g(t){var n=arguments.length>1&&void 0!==arguments[1]?arguments[1]:2;if(Number.isInteger(t))return t;var e=Math.pow(10,n);return Math.round(t*e)/e}var p=Math.PI/180;function m(t,n,e){return t>=.5?e:n}function b(t,n,e){return 0===t||n===e?n:t*(e-n)+n}function w(t,n,e){var r=b(t,n,e);return r<=0?0:r}function x(t,n,e){return 0===t?n:1===t?e:{x:b(t,n.x,e.x),y:b(t,n.y,e.y)}}function k(t,n,e){var r=function(t,n,e){return Math.round(b(t,n,e))}(t,n,e);return r<=0?0:r>=255?255:r}function A(t,n,e){return 0===t?n:1===t?e:{r:k(t,n.r,e.r),g:k(t,n.g,e.g),b:k(t,n.b,e.b),a:b(t,null==n.a?1:n.a,null==e.a?1:e.a)}}function _(t,n,e){if(0===t)return n;if(1===t)return e;var r=n.length;if(r!==e.length)return m(t,n,e);for(var i=[],o=0;o<r;o++)i.push(A(t,n[o],e[o]));return i}function S(t,n){for(var e=[],r=0;r<t;r++)e.push(n);return e}function O(t,n){if(--n<=0)return t;var e=(t=Object.assign([],t)).length;do{for(var r=0;r<e;r++)t.push(t[r])}while(--n>0);return t}var M,j=function(){function t(e){n(this,t),this.list=e,this.length=e.length}return r(t,[{key:"setAttribute",value:function(t,n){for(var e=this.list,r=0;r<this.length;r++)e[r].setAttribute(t,n)}},{key:"removeAttribute",value:function(t){for(var n=this.list,e=0;e<this.length;e++)n[e].removeAttribute(t)}},{key:"style",value:function(t,n){for(var e=this.list,r=0;r<this.length;r++)e[r].style[t]=n}}]),t}(),F=/-./g,P=function(t,n){return n.toUpperCase()};function B(t){return"function"==typeof t?t:m}function I(t){return t?"function"==typeof t?t:Array.isArray(t)?function(t){var n=arguments.length>1&&void 0!==arguments[1]?arguments[1]:s;if(!Array.isArray(t))return n;switch(t.length){case 1:return d(t[0])||n;case 2:return d(t[0],t[1])||n;case 4:return h(t[0],t[1],t[2],t[3])||n}return n}(t,null):function(t,n){var e=arguments.length>2&&void 0!==arguments[2]?arguments[2]:s;switch(t){case"linear":return s;case"steps":return d(n.steps||1,n.jump||0)||e;case"bezier":case"cubic-bezier":return h(n.x1||0,n.y1||0,n.x2||0,n.y2||0)||e}return e}(t.type,t.value,null):null}function E(t,n,e){var r=arguments.length>3&&void 0!==arguments[3]&&arguments[3],i=n.length-1;if(t<=n[0].t)return r?[0,0,n[0].v]:n[0].v;if(t>=n[i].t)return r?[i,1,n[i].v]:n[i].v;var o,u=n[0],a=null;for(o=1;o<=i;o++){if(!(t>n[o].t)){a=n[o];break}u=n[o]}return null==a?r?[i,1,n[i].v]:n[i].v:u.t===a.t?r?[o,1,a.v]:a.v:(t=(t-u.t)/(a.t-u.t),u.e&&(t=u.e(t)),r?[o,t,e(t,u.v,a.v)]:e(t,u.v,a.v))}function R(t,n){var e=arguments.length>2&&void 0!==arguments[2]?arguments[2]:null;return t&&t.length?"function"!=typeof n?null:("function"!=typeof e&&(e=null),function(r){var i=E(r,t,n);return null!=i&&e&&(i=e(i)),i}):null}function q(t,n){return t.t-n.t}function T(n,e,r,i,o){var u,a="@"===r[0],l="#"===r[0],f=M[r],s=m;switch(a?(u=r.substr(1),r=u.replace(F,P)):l&&(r=r.substr(1)),t(f)){case"function":if(s=f(i,o,E,I,r,a,e,n),l)return s;break;case"string":s=R(i,B(f));break;case"object":if((s=R(i,B(f.i),f.f))&&"function"==typeof f.u)return f.u(e,s,r,a,n)}return s?function(t,n,e){var r=arguments.length>3&&void 0!==arguments[3]&&arguments[3];if(r)return t instanceof j?function(r){return t.style(n,e(r))}:function(r){return t.style[n]=e(r)};if(Array.isArray(n)){var i=n.length;return function(r){var o=e(r);if(null==o)for(var u=0;u<i;u++)t[u].removeAttribute(n);else for(var a=0;a<i;a++)t[a].setAttribute(n,o)}}return function(r){var i=e(r);null==i?t.removeAttribute(n):t.setAttribute(n,i)}}(e,r,s,a):null}function N(n,e,r,i){if(!i||"object"!==t(i))return null;var o=null,u=null;return Array.isArray(i)?u=function(t){if(!t||!t.length)return null;for(var n=0;n<t.length;n++)t[n].e&&(t[n].e=I(t[n].e));return t.sort(q)}(i):(u=i.keys,o=i.data||null),u?T(n,e,r,u,o):null}function C(t,n,e){if(!e)return null;var r=[];for(var i in e)if(e.hasOwnProperty(i)){var o=N(t,n,i,e[i]);o&&r.push(o)}return r.length?r:null}function z(t,n){if(!n.duration||n.duration<0)return null;var e=function(t,n){if(!n)return null;var e=[];if(Array.isArray(n))for(var r=n.length,i=0;i<r;i++){var o=n[i];if(2===o.length){var u=null;if("string"==typeof o[0])u=t.getElementById(o[0]);else if(Array.isArray(o[0])){u=[];for(var a=0;a<o[0].length;a++)if("string"==typeof o[0][a]){var l=t.getElementById(o[0][a]);l&&u.push(l)}u=u.length?1===u.length?u[0]:new j(u):null}if(u){var f=C(t,u,o[1]);f&&(e=e.concat(f))}}}else for(var s in n)if(n.hasOwnProperty(s)){var c=t.getElementById(s);if(c){var h=C(t,c,n[s]);h&&(e=e.concat(h))}}return e.length?e:null}(t,n.elements);return e?function(t,n){var e=arguments.length>2&&void 0!==arguments[2]?arguments[2]:1/0,r=arguments.length>3&&void 0!==arguments[3]?arguments[3]:1,i=arguments.length>4&&void 0!==arguments[4]&&arguments[4],o=arguments.length>5&&void 0!==arguments[5]?arguments[5]:1,u=t.length,a=r>0?n:0;i&&e%2==0&&(a=n-a);var l=null;return function(f,s){var c=f%n,h=1+(f-c)/n;s*=r,i&&h%2==0&&(s=-s);var v=!1;if(h>e)c=a,v=!0,-1===o&&(c=r>0?0:n);else if(s<0&&(c=n-c),c===l)return!1;l=c;for(var y=0;y<u;y++)t[y](c);return v}}(e,n.duration,n.iterations||1/0,n.direction||1,!!n.alternate,n.fill||1):null}var L=function(){function t(e,r){var i=arguments.length>2&&void 0!==arguments[2]?arguments[2]:{};n(this,t),this._id=0,this._running=!1,this._rollingBack=!1,this._animations=e,this.duration=r.duration,this.alternate=r.alternate,this.fill=r.fill,this.iterations=r.iterations,this.direction=i.direction||1,this.speed=i.speed||1,this.fps=i.fps||100,this.offset=i.offset||0,this.rollbackStartOffset=0}return r(t,[{key:"_rollback",value:function(){var t=this,n=1/0,e=null;this.rollbackStartOffset=this.offset,this._rollingBack||(this._rollingBack=!0,this._running=!0);this._id=window.requestAnimationFrame((function r(i){if(t._rollingBack){null==e&&(e=i);var o=i-e,u=t.rollbackStartOffset-o,a=Math.round(u*t.speed);if(a>t.duration&&n!=1/0){var l=!!t.alternate&&a/t.duration%2>1,f=a%t.duration;a=(f+=l?t.duration:0)||t.duration}var s=t.fps?1e3/t.fps:0,c=Math.max(0,a);if(c<n-s){t.offset=c,n=c;for(var h=t._animations,v=h.length,y=0;y<v;y++)h[y](c,t.direction)}var d=!1;if(t.iterations>0&&-1===t.fill){var g=t.iterations*t.duration,p=g==a;a=p?0:a,t.offset=p?0:t.offset,d=a>g}a>0&&t.offset>=a&&!d?t._id=window.requestAnimationFrame(r):t.stop()}}))}},{key:"_start",value:function(){var t=this,n=arguments.length>0&&void 0!==arguments[0]?arguments[0]:0,e=-1/0,r=null,i={},o=function o(u){t._running=!0,null==r&&(r=u);var a=Math.round((u-r+n)*t.speed),l=t.fps?1e3/t.fps:0;if(a>e+l&&!t._rollingBack){t.offset=a,e=a;for(var f=t._animations,s=f.length,c=0,h=0;h<s;h++)i[h]?c++:(i[h]=f[h](a,t.direction),i[h]&&c++);if(c===s)return void t._stop()}t._id=window.requestAnimationFrame(o)};this._id=window.requestAnimationFrame(o)}},{key:"_stop",value:function(){this._id&&window.cancelAnimationFrame(this._id),this._running=!1,this._rollingBack=!1}},{key:"play",value:function(){!this._rollingBack&&this._running||(this._rollingBack=!1,this.rollbackStartOffset>this.duration&&(this.offset=this.rollbackStartOffset-(this.rollbackStartOffset-this.offset)%this.duration,this.rollbackStartOffset=0),this._start(this.offset))}},{key:"stop",value:function(){this._stop(),this.offset=0,this.rollbackStartOffset=0;var t=this.direction,n=this._animations;window.requestAnimationFrame((function(){for(var e=0;e<n.length;e++)n[e](0,t)}))}},{key:"reachedToEnd",value:function(){return this.iterations>0&&this.offset>=this.iterations*this.duration}},{key:"restart",value:function(){this._stop(),this.offset=0,this._start()}},{key:"pause",value:function(){this._stop()}},{key:"reverse",value:function(){this.direction=-this.direction}}],[{key:"build",value:function(n,e){return(n=function(t,n){if(M=n,!t||!t.root||!Array.isArray(t.animations))return null;for(var e=document.getElementsByTagName("svg"),r=!1,i=0;i<e.length;i++)if(e[i].id===t.root&&!e[i].svgatorAnimation){(r=e[i]).svgatorAnimation=!0;break}if(!r)return null;var o=t.animations.map((function(t){return z(r,t)})).filter((function(t){return!!t}));return o.length?{element:r,animations:o,animationSettings:t.animationSettings,options:t.options||void 0}:null}(n,e))?{el:n.element,options:n.options||{},player:new t(n.animations,n.animationSettings,n.options)}:null}}]),t}();!function(){for(var t=0,n=["ms","moz","webkit","o"],e=0;e<n.length&&!window.requestAnimationFrame;++e)window.requestAnimationFrame=window[n[e]+"RequestAnimationFrame"],window.cancelAnimationFrame=window[n[e]+"CancelAnimationFrame"]||window[n[e]+"CancelRequestAnimationFrame"];window.requestAnimationFrame||(window.requestAnimationFrame=function(n){var e=Date.now(),r=Math.max(0,16-(e-t)),i=window.setTimeout((function(){n(e+r)}),r);return t=e+r,i},window.cancelAnimationFrame=window.clearTimeout)}();var D=/\.0+$/g;function Q(t){return Number.isInteger(t)?t+"":t.toFixed(6).replace(D,"")}function U(t){var n=arguments.length>1&&void 0!==arguments[1]?arguments[1]:" ";return t&&t.length?t.map(Q).join(n):""}function V(t){return t?null==t.a||t.a>=1?"rgb("+t.r+","+t.g+","+t.b+")":"rgba("+t.r+","+t.g+","+t.b+","+t.a+")":"transparent"}var $={f:null,i:function(t,n,e){return 0===t?n:1===t?e:{x:w(t,n.x,e.x),y:w(t,n.y,e.y)}},u:function(t,n){return function(e){var r=n(e);t.setAttribute("rx",Q(r.x)),t.setAttribute("ry",Q(r.y))}}},G={f:null,i:function(t,n,e){return 0===t?n:1===t?e:{width:w(t,n.width,e.width),height:w(t,n.height,e.height)}},u:function(t,n){return function(e){var r=n(e);t.setAttribute("width",Q(r.width)),t.setAttribute("height",Q(r.height))}}},H=Math.sin,Y=Math.cos,Z=Math.acos,J=Math.asin,K=Math.tan,W=Math.atan2,X=Math.PI/180,tt=180/Math.PI,nt=Math.sqrt,et=function(){function t(){var e=arguments.length>0&&void 0!==arguments[0]?arguments[0]:1,r=arguments.length>1&&void 0!==arguments[1]?arguments[1]:0,i=arguments.length>2&&void 0!==arguments[2]?arguments[2]:0,o=arguments.length>3&&void 0!==arguments[3]?arguments[3]:1,u=arguments.length>4&&void 0!==arguments[4]?arguments[4]:0,a=arguments.length>5&&void 0!==arguments[5]?arguments[5]:0;n(this,t),this.m=[e,r,i,o,u,a],this.i=null,this.w=null,this.s=null}return r(t,[{key:"determinant",get:function(){var t=this.m;return t[0]*t[3]-t[1]*t[2]}},{key:"isIdentity",get:function(){if(null===this.i){var t=this.m;this.i=1===t[0]&&0===t[1]&&0===t[2]&&1===t[3]&&0===t[4]&&0===t[5]}return this.i}},{key:"point",value:function(t,n){var e=this.m;return{x:e[0]*t+e[2]*n+e[4],y:e[1]*t+e[3]*n+e[5]}}},{key:"translateSelf",value:function(){var t=arguments.length>0&&void 0!==arguments[0]?arguments[0]:0,n=arguments.length>1&&void 0!==arguments[1]?arguments[1]:0;if(!t&&!n)return this;var e=this.m;return e[4]+=e[0]*t+e[2]*n,e[5]+=e[1]*t+e[3]*n,this.w=this.s=this.i=null,this}},{key:"rotateSelf",value:function(){var t=arguments.length>0&&void 0!==arguments[0]?arguments[0]:0;if(t%=360){var n=H(t*=X),e=Y(t),r=this.m,i=r[0],o=r[1];r[0]=i*e+r[2]*n,r[1]=o*e+r[3]*n,r[2]=r[2]*e-i*n,r[3]=r[3]*e-o*n,this.w=this.s=this.i=null}return this}},{key:"scaleSelf",value:function(){var t=arguments.length>0&&void 0!==arguments[0]?arguments[0]:1,n=arguments.length>1&&void 0!==arguments[1]?arguments[1]:1;if(1!==t||1!==n){var e=this.m;e[0]*=t,e[1]*=t,e[2]*=n,e[3]*=n,this.w=this.s=this.i=null}return this}},{key:"skewSelf",value:function(t,n){if(n%=360,(t%=360)||n){var e=this.m,r=e[0],i=e[1],o=e[2],u=e[3];t&&(t=K(t*X),e[2]+=r*t,e[3]+=i*t),n&&(n=K(n*X),e[0]+=o*n,e[1]+=u*n),this.w=this.s=this.i=null}return this}},{key:"resetSelf",value:function(){var t=arguments.length>0&&void 0!==arguments[0]?arguments[0]:1,n=arguments.length>1&&void 0!==arguments[1]?arguments[1]:0,e=arguments.length>2&&void 0!==arguments[2]?arguments[2]:0,r=arguments.length>3&&void 0!==arguments[3]?arguments[3]:1,i=arguments.length>4&&void 0!==arguments[4]?arguments[4]:0,o=arguments.length>5&&void 0!==arguments[5]?arguments[5]:0,u=this.m;return u[0]=t,u[1]=n,u[2]=e,u[3]=r,u[4]=i,u[5]=o,this.w=this.s=this.i=null,this}},{key:"recomposeSelf",value:function(){var t=arguments.length>0&&void 0!==arguments[0]?arguments[0]:null,n=arguments.length>1&&void 0!==arguments[1]?arguments[1]:null,e=arguments.length>2&&void 0!==arguments[2]?arguments[2]:null,r=arguments.length>3&&void 0!==arguments[3]?arguments[3]:null,i=arguments.length>4&&void 0!==arguments[4]?arguments[4]:null;return this.isIdentity||this.resetSelf(),t&&(t.x||t.y)&&this.translateSelf(t.x,t.y),n&&this.rotateSelf(n),e&&(e.x&&this.skewSelf(e.x,0),e.y&&this.skewSelf(0,e.y)),!r||1===r.x&&1===r.y||this.scaleSelf(r.x,r.y),i&&(i.x||i.y)&&this.translateSelf(i.x,i.y),this}},{key:"decompose",value:function(){var t=arguments.length>0&&void 0!==arguments[0]?arguments[0]:0,n=arguments.length>1&&void 0!==arguments[1]?arguments[1]:0,e=this.m,r=e[0]*e[0]+e[1]*e[1],i=[[e[0],e[1]],[e[2],e[3]]],o=nt(r);if(0===o)return{origin:{x:e[4],y:e[5]},translate:{x:t,y:n},scale:{x:0,y:0},skew:{x:0,y:0},rotate:0};i[0][0]/=o,i[0][1]/=o;var u=e[0]*e[3]-e[1]*e[2]<0;u&&(o=-o);var a=i[0][0]*i[1][0]+i[0][1]*i[1][1];i[1][0]-=i[0][0]*a,i[1][1]-=i[0][1]*a;var l=nt(i[1][0]*i[1][0]+i[1][1]*i[1][1]);if(0===l)return{origin:{x:e[4],y:e[5]},translate:{x:t,y:n},scale:{x:o,y:0},skew:{x:0,y:0},rotate:0};i[1][0]/=l,i[1][1]/=l,a/=l;var f=0;return i[1][1]<0?(f=Z(i[1][1])*tt,i[0][1]<0&&(f=360-f)):f=J(i[0][1])*tt,u&&(f=-f),a=W(a,nt(i[0][0]*i[0][0]+i[0][1]*i[0][1]))*tt,u&&(a=-a),{origin:{x:e[4],y:e[5]},translate:{x:t,y:n},scale:{x:o,y:l},skew:{x:a,y:0},rotate:f}}},{key:"toString",value:function(){return null===this.s&&(this.s="matrix("+this.m.map(it).join(" ")+")"),this.s}}]),t}(),rt=/\.0+$/;function it(t){return Number.isInteger(t)?t:t.toFixed(14).replace(rt,"")}Object.freeze({M:2,L:2,Z:0,H:1,V:1,C:6,Q:4,T:2,S:4,A:7});var ot={},ut=null;function at(n){var e=function(){if(ut)return ut;if("object"!==("undefined"==typeof document?"undefined":t(document))||!document.createElementNS)return{};var n=document.createElementNS("http://www.w3.org/2000/svg","svg");return n&&n.style?(n.style.position="absolute",n.style.opacity="0.01",n.style.zIndex="-9999",n.style.left="-9999px",n.style.width="1px",n.style.height="1px",ut={svg:n}):{}}().svg;if(!e)return function(t){return null};var r=document.createElementNS(e.namespaceURI,"path");r.setAttributeNS(null,"d",n),r.setAttributeNS(null,"fill","none"),r.setAttributeNS(null,"stroke","none"),e.appendChild(r);var i=r.getTotalLength();return function(t){var n=r.getPointAtLength(i*t);return{x:n.x,y:n.y}}}function lt(t){return ot[t]?ot[t]:ot[t]=at(t)}function ft(t,n,e,r){if(!t||!r)return!1;var i=["M",t.x,t.y];if(n&&e&&(i.push("C"),i.push(n.x),i.push(n.y),i.push(e.x),i.push(e.y)),n?!e:e){var o=n||e;i.push("Q"),i.push(o.x),i.push(o.y)}return n||e||i.push("L"),i.push(r.x),i.push(r.y),i.join(" ")}function st(t,n,e,r){var i=arguments.length>4&&void 0!==arguments[4]?arguments[4]:1,o=ft(t,n,e,r),u=lt(o);try{return u(i)}catch(t){return null}}function ct(t,n,e,r){var i=1-r;return i*i*t+2*i*r*n+r*r*e}function ht(t,n,e,r){return 2*(1-r)*(n-t)+2*r*(e-n)}function vt(t,n,e,r){var i=arguments.length>4&&void 0!==arguments[4]&&arguments[4],o=st(t,n,null,e,r);return o||(o={x:ct(t.x,n.x,e.x,r),y:ct(t.y,n.y,e.y,r)}),i&&(o.a=yt(t,n,e,r)),o}function yt(t,n,e,r){return Math.atan2(ht(t.y,n.y,e.y,r),ht(t.x,n.x,e.x,r))}function dt(t,n,e,r,i){var o=i*i;return i*o*(r-t+3*(n-e))+3*o*(t+e-2*n)+3*i*(n-t)+t}function gt(t,n,e,r,i){var o=1-i;return 3*(o*o*(n-t)+2*o*i*(e-n)+i*i*(r-e))}function pt(t,n,e,r,i){var o=arguments.length>5&&void 0!==arguments[5]&&arguments[5],u=st(t,n,e,r,i);return u||(u={x:dt(t.x,n.x,e.x,r.x,i),y:dt(t.y,n.y,e.y,r.y,i)}),o&&(u.a=mt(t,n,e,r,i)),u}function mt(t,n,e,r,i){return Math.atan2(gt(t.y,n.y,e.y,r.y,i),gt(t.x,n.x,e.x,r.x,i))}function bt(t,n,e){return t+(n-t)*e}function wt(t,n,e){var r=arguments.length>3&&void 0!==arguments[3]&&arguments[3],i={x:bt(t.x,n.x,e),y:bt(t.y,n.y,e)};return r&&(i.a=xt(t,n)),i}function xt(t,n){return Math.atan2(n.y-t.y,n.x-t.x)}function kt(t,n,e){var r=arguments.length>3&&void 0!==arguments[3]&&arguments[3];if(_t(n)){if(St(e))return vt(n,e.start,e,t,r)}else if(_t(e)){if(n.end)return vt(n,n.end,e,t,r)}else{if(n.end)return e.start?pt(n,n.end,e.start,e,t,r):vt(n,n.end,e,t,r);if(e.start)return vt(n,e.start,e,t,r)}return wt(n,e,t,r)}function At(t,n,e){var r=kt(t,n,e,!0);return r.a=function(t){var n=arguments.length>1&&void 0!==arguments[1]&&arguments[1];return n?t+Math.PI:t}(r.a)/p,r}function _t(t){return!t.type||"corner"===t.type}function St(t){return null!=t.start&&!_t(t)}var Ot=new et;var Mt={f:Q,i:b},jt={f:Q,i:function(t,n,e){var r=b(t,n,e);return r<=0?0:r>=1?1:r}};function Ft(t,n,e,r,i,o,u,a){return n=function(t,n,e){for(var r,i,o,u=t.length-1,a={},l=0;l<=u;l++)(r=t[l]).e&&(r.e=n(r.e)),r.v&&"g"===(i=r.v).t&&i.r&&(o=e.getElementById(i.r))&&(a[i.r]=o.querySelectorAll("stop"));return a}(t,r,a),function(r){var i,o=e(r,t,Pt);return o?"c"===o.t?V(o.v):"g"===o.t?(n[o.r]&&function(t,n){for(var e=0,r=t.length;e<r;e++)t[e].setAttribute("stop-color",V(n[e]))}(n[o.r],o.v),(i=o.r)?"url(#"+i+")":"none"):"none":"none"}}function Pt(t,n,e){if(0===t)return n;if(1===t)return e;if(n&&e){var r=n.t;if(r===e.t)switch(n.t){case"c":return{t:r,v:A(t,n.v,e.v)};case"g":if(n.r===e.r)return{t:r,v:_(t,n.v,e.v),r:n.r}}}return m(t,n,e)}var Bt={fill:Ft,"fill-opacity":jt,stroke:Ft,"stroke-opacity":jt,"stroke-width":Mt,"stroke-dashoffset":{f:Q,i:b},"stroke-dasharray":{f:function(t){var n=arguments.length>1&&void 0!==arguments[1]?arguments[1]:" ";return t&&t.length>0&&(t=t.map((function(t){return Math.floor(1e4*t)/1e4}))),U(t,n)},i:function(t,n,e){var r,i,o,u=n.length,a=e.length;if(u!==a)if(0===u)n=S(u=a,0);else if(0===a)a=u,e=S(u,0);else{var l=(o=(r=u)*(i=a)/function(t,n){for(var e;n;)e=n,n=t%n,t=e;return t||1}(r,i))<0?-o:o;n=O(n,Math.floor(l/u)),e=O(e,Math.floor(l/a)),u=a=l}for(var f=[],s=0;s<u;s++)f.push(g(w(t,n[s],e[s]),6));return f}},opacity:jt,transform:function(n,e,r,i){if(!(n=function(n,e){if(!n||"object"!==t(n))return null;var r=!1;for(var i in n)n.hasOwnProperty(i)&&(n[i]&&n[i].length?(n[i].forEach((function(t){t.e&&(t.e=e(t.e))})),r=!0):delete n[i]);return r?n:null}(n,i)))return null;var o=function(t,i,o){var u=arguments.length>3&&void 0!==arguments[3]?arguments[3]:null;return n[t]?r(i,n[t],o):e&&e[t]?e[t]:u};return e&&e.a&&n.o?function(t){var e=r(t,n.o,At);return Ot.recomposeSelf(e,o("r",t,b,0)+e.a,o("k",t,x),o("s",t,x),o("t",t,x)).toString()}:function(t){return Ot.recomposeSelf(o("o",t,kt,null),o("r",t,b,0),o("k",t,x),o("s",t,x),o("t",t,x)).toString()}},r:Mt,"#size":G,"#radius":$,_:function(t,n){if(Array.isArray(t))for(var e=0;e<t.length;e++)this[t[e]]=n;else this[t]=n}};return function(t){!function(t,n){if("function"!=typeof n&&null!==n)throw new TypeError("Super expression must either be null or a function");t.prototype=Object.create(n&&n.prototype,{constructor:{value:t,writable:!0,configurable:!0}}),n&&o(t,n)}(u,t);var e=a(u);function u(){return n(this,u),e.apply(this,arguments)}return r(u,null,[{key:"build",value:function(t){var n=l(i(u),"build",this).call(this,t,Bt);if(!n)return null;n.el,n.options;var e=n.player;return function(t,n,e){t.play()}(e),e}}]),u}(L)}));
__SVGATOR_PLAYER__.build({"root":"esAZg3OneWU1","animations":[{"duration":3000,"direction":1,"iterations":0,"fill":-1,"alternate":true,"speed":1,"elements":{"esAZg3OneWU34":{"transform":{"keys":{"o":[{"t":0,"v":{"x":-155.60968999999983,"y":-26.61720692499886,"type":"corner"}},{"t":1100,"v":{"x":-168.65907356999696,"y":-22.22716875999889,"type":"corner"}},{"t":1600,"v":{"x":-168.65907356999696,"y":-7.347134619998897,"type":"corner"}}],"s":[{"t":0,"v":{"x":1,"y":1}},{"t":1600,"v":{"x":1.0124739624346781,"y":1}},{"t":2600,"v":{"x":1.0377330867816785,"y":0.9637670687707267}}]}}}}}],"options":{"start":"load","font":"embed","exportedIds":"unique","svgFormat":"animated","title":"super-woman (2)"},"animationSettings":{"duration":3000,"direction":1,"iterations":0,"fill":-1,"alternate":true,"speed":1}})]]></script></svg>